<?xml version="1.0" standalone="no"?>
<!DOCTYPE svg PUBLIC "-//W3C//DTD SVG 20010904//EN"
 "http://www.w3.org/TR/2001/REC-SVG-20010904/DTD/svg10.dtd">
<svg version="1.0" xmlns="http://www.w3.org/2000/svg"
 width="866.000000pt" height="508.000000pt" viewBox="0 0 866.000000 508.000000"
 preserveAspectRatio="xMidYMid meet">

<g transform="translate(0.000000,508.000000) scale(0.100000,-0.100000)"
fill="#000000" stroke="none">
<path d="M3340 4358 c-73 -166 -4 -281 265 -440 72 -42 200 -115 285 -163 158
-89 257 -154 322 -213 l36 -33 79 60 c43 33 200 130 348 217 389 226 462 280
500 370 27 65 13 177 -29 223 -14 16 -20 12 -84 -49 -51 -50 -96 -80 -181
-123 -61 -31 -119 -57 -127 -57 -9 0 -59 13 -112 29 -162 50 -205 56 -402 56
-196 0 -220 -3 -398 -57 l-103 -32 -102 50 c-73 36 -120 67 -172 114 -110 103
-102 99 -125 48z"/>
<path d="M3388 3910 c-59 -68 -114 -176 -139 -279 -27 -106 -23 -263 8 -353
l20 -58 -81 -82 c-83 -85 -129 -157 -168 -265 -16 -46 -22 -90 -25 -210 l-5
-153 346 0 346 0 0 98 c0 112 -16 190 -59 285 l-30 67 114 0 c62 0 126 5 140
10 37 14 167 91 163 96 -3 2 -42 -1 -89 -8 -151 -20 -297 28 -388 128 -27 30
-62 80 -78 112 -26 52 -28 67 -28 167 0 103 2 114 32 178 19 39 55 92 87 125
l55 58 -52 40 c-29 22 -68 52 -88 67 l-37 28 -44 -51z"/>
<path d="M4983 3894 l-83 -66 50 -55 c96 -105 147 -262 121 -377 -52 -234
-261 -374 -502 -337 -45 7 -83 10 -86 8 -2 -3 36 -25 85 -50 96 -48 204 -73
274 -64 34 5 39 3 34 -11 -3 -9 -20 -57 -37 -107 -27 -76 -33 -108 -37 -207
l-4 -118 350 0 351 0 7 56 c14 115 -21 289 -83 414 -27 54 -59 97 -116 155
l-79 79 19 76 c13 53 18 110 17 195 0 104 -4 131 -28 200 -15 44 -39 100 -53
125 -30 53 -103 150 -112 150 -3 0 -43 -30 -88 -66z"/>
<path d="M3715 3646 c-40 -17 -90 -75 -105 -122 -25 -74 25 -191 98 -228 129
-66 272 27 272 176 0 77 -31 126 -99 161 -60 30 -117 34 -166 13z"/>
<path d="M4625 3641 c-24 -10 -52 -35 -70 -61 -26 -38 -30 -52 -30 -110 0 -56
4 -73 28 -109 68 -103 191 -117 281 -33 38 36 56 81 56 142 0 53 -23 112 -57
142 -53 48 -140 60 -208 29z"/>
<path d="M4284 3423 l-30 -36 -37 33 c-37 32 -38 32 -58 15 -10 -10 -27 -43
-35 -72 -14 -49 -14 -60 1 -126 18 -80 104 -289 121 -294 12 -4 67 110 108
225 41 116 32 226 -23 276 -16 15 -20 13 -47 -21z"/>
<path d="M2623 2121 c-149 -51 -197 -137 -197 -356 -1 -190 34 -273 138 -328
56 -30 242 -32 329 -3 l57 19 0 73 c0 41 -3 74 -7 74 -5 0 -46 -7 -93 -16 -84
-15 -156 -12 -192 7 -29 16 -48 64 -54 141 -9 105 8 186 46 221 30 26 33 27
155 27 l125 0 0 74 c0 88 4 86 -150 86 -75 -1 -120 -6 -157 -19z"/>
<path d="M3787 2130 c-142 -36 -205 -131 -214 -325 -8 -161 36 -298 112 -345
111 -68 329 -66 436 4 81 54 125 189 116 351 -10 167 -49 245 -144 292 -48 23
-70 27 -162 29 -58 2 -123 -1 -144 -6z m233 -178 c35 -35 44 -89 38 -210 -8
-141 -31 -167 -153 -167 -122 0 -145 26 -153 167 -6 121 3 175 38 210 27 26
33 28 115 28 82 0 88 -2 115 -28z"/>
<path d="M5792 2118 c-81 -27 -143 -86 -169 -160 -14 -42 -18 -83 -18 -198 1
-129 3 -151 23 -196 13 -28 38 -65 55 -82 81 -77 267 -94 470 -41 l37 10 -2
187 -3 187 -142 3 -143 3 0 -76 0 -75 60 0 60 0 0 -55 0 -55 -75 0 c-94 0
-127 15 -149 70 -22 55 -22 215 0 270 25 62 49 70 214 70 l140 0 0 74 c0 89 7
86 -170 85 -100 0 -137 -4 -188 -21z"/>
<path d="M1272 2103 c-16 -45 -240 -646 -247 -665 -7 -16 1 -18 86 -18 l94 0
18 60 17 60 129 0 129 0 19 -57 20 -58 92 -3 c52 -2 91 1 89 6 -1 5 -59 165
-128 356 l-125 346 -91 0 c-91 0 -92 0 -102 -27z m141 -286 c20 -68 37 -126
37 -130 0 -4 -36 -7 -80 -7 -44 0 -80 3 -80 6 0 16 75 254 80 254 3 0 22 -55
43 -123z"/>
<path d="M1730 1928 c0 -112 5 -236 10 -276 23 -176 127 -252 330 -240 123 7
200 54 244 148 19 42 21 65 24 308 l3 262 -85 0 -86 0 0 -222 c0 -124 -5 -240
-11 -261 -14 -52 -49 -72 -126 -72 -55 0 -66 3 -90 28 l-28 27 -3 250 -3 250
-89 0 -90 0 0 -202z"/>
<path d="M2980 2050 l0 -80 95 0 95 0 0 -275 0 -275 90 0 90 0 0 275 0 275 95
0 95 0 0 80 0 80 -280 0 -280 0 0 -80z"/>
<path d="M4540 1775 l0 -355 225 0 225 0 0 80 0 79 -137 3 -138 3 -3 273 -2
272 -85 0 -85 0 0 -355z"/>
<path d="M5060 1775 l0 -355 245 0 245 0 0 80 0 79 -157 3 -158 3 -3 63 -3 62
131 0 130 0 0 70 0 69 -127 3 -128 3 -3 58 -3 57 156 0 155 0 0 80 0 80 -240
0 -240 0 0 -355z"/>
<path d="M6471 2108 c-48 -126 -251 -680 -251 -684 0 -3 41 -3 92 -2 l92 3 16
55 16 55 130 3 131 3 18 -61 18 -60 93 0 92 0 -31 88 c-17 48 -75 206 -127
352 l-96 265 -92 3 c-88 3 -93 2 -101 -20z m138 -291 c23 -71 41 -130 41 -132
0 -3 -38 -5 -83 -5 l-84 0 41 134 c22 74 41 134 43 133 1 -2 20 -60 42 -130z"/>
<path d="M6970 1775 l0 -355 225 0 225 0 0 80 0 80 -135 0 -135 0 0 275 0 275
-90 0 -90 0 0 -355z"/>
<path d="M4290 1500 l0 -80 80 0 80 0 0 80 0 80 -80 0 -80 0 0 -80z"/>
<path d="M1081 1027 c-18 -23 -2 -49 28 -45 20 2 26 8 26 28 0 29 -34 40 -54
17z"/>
<path d="M1910 880 l0 -160 30 0 30 0 0 160 0 160 -30 0 -30 0 0 -160z"/>
<path d="M2044 1025 c-9 -23 3 -45 24 -45 11 0 25 7 32 15 16 19 -3 45 -32 45
-10 0 -21 -7 -24 -15z"/>
<path d="M2440 1013 l-22 -28 22 -3 c12 -2 30 4 41 14 18 16 20 16 37 1 10
-10 31 -17 47 -17 l29 0 -29 30 c-39 41 -94 42 -125 3z"/>
<path d="M3154 1026 c-10 -26 4 -48 28 -44 17 2 23 10 23 28 0 18 -6 26 -23
28 -13 2 -25 -3 -28 -12z"/>
<path d="M5913 979 c5 -58 4 -60 -13 -44 -28 26 -88 16 -114 -18 -29 -39 -29
-125 0 -164 25 -34 86 -44 114 -18 16 14 18 14 23 0 4 -8 18 -15 32 -15 l25 0
0 160 0 160 -36 0 -37 0 6 -61z m1 -121 c12 -49 -4 -88 -37 -88 -34 0 -47 19
-47 65 0 48 15 67 50 63 20 -2 27 -11 34 -40z"/>
<path d="M6714 1025 c-9 -23 3 -45 24 -45 29 0 48 26 32 45 -7 8 -21 15 -32
15 -10 0 -21 -7 -24 -15z"/>
<path d="M7284 1025 c-9 -23 3 -45 24 -45 29 0 48 26 32 45 -7 8 -21 15 -32
15 -10 0 -21 -7 -24 -15z"/>
<path d="M739 993 c-6 -16 -25 -71 -44 -123 -18 -52 -38 -108 -44 -123 -11
-28 -11 -28 26 -25 32 3 38 7 45 36 9 33 9 33 66 30 54 -3 57 -4 66 -35 8 -29
13 -33 42 -33 19 0 34 2 34 4 0 3 -23 70 -51 150 l-51 146 -39 0 c-34 0 -41
-4 -50 -27z m71 -88 c7 -25 10 -48 7 -51 -3 -3 -18 -4 -34 -2 l-30 3 15 52 c8
29 18 51 22 48 4 -2 13 -25 20 -50z"/>
<path d="M6410 870 l0 -150 63 0 c121 1 177 49 177 152 0 102 -54 148 -175
148 l-65 0 0 -150z m134 89 c48 -22 59 -125 18 -162 -9 -8 -34 -18 -54 -22
l-38 -7 0 101 c0 101 0 101 25 101 13 0 35 -5 49 -11z"/>
<path d="M1501 977 c-5 -13 -16 -29 -25 -36 -20 -17 -21 -41 -1 -41 12 0 15
-15 15 -73 0 -91 15 -110 81 -105 36 2 45 7 47 25 3 18 -2 22 -30 25 l-33 3
-3 63 -3 62 31 0 c25 0 30 4 30 25 0 21 -5 25 -30 25 -25 0 -30 4 -30 25 0 33
-37 35 -49 2z"/>
<path d="M5086 975 c-3 -13 -15 -29 -26 -35 -23 -12 -27 -40 -6 -40 10 0 15
-19 18 -74 4 -91 15 -106 79 -106 46 0 49 2 49 25 0 21 -5 25 -29 25 -33 0
-41 17 -41 88 0 41 0 42 35 42 31 0 35 3 35 25 0 22 -4 25 -35 25 -31 0 -35 3
-35 25 0 34 -35 35 -44 0z"/>
<path d="M7429 978 c-6 -13 -21 -31 -33 -41 -20 -16 -20 -18 -3 -31 11 -9 17
-27 17 -57 0 -53 15 -110 32 -121 7 -4 32 -8 56 -8 38 0 42 2 42 25 0 21 -5
25 -30 25 l-30 0 0 65 0 65 30 0 c25 0 30 4 30 25 0 21 -5 25 -30 25 -25 0
-30 4 -30 25 0 33 -35 34 -51 3z"/>
<path d="M1080 835 l0 -115 30 0 30 0 0 115 0 115 -30 0 -30 0 0 -115z"/>
<path d="M1200 835 l0 -115 35 0 35 0 0 79 c0 85 10 105 52 99 22 -3 23 -8 26
-90 l3 -88 36 0 35 0 -4 89 c-5 115 -21 141 -82 141 -27 0 -48 -6 -57 -16 -11
-14 -13 -14 -21 0 -5 9 -20 16 -33 16 l-25 0 0 -115z"/>
<path d="M1694 932 c-30 -24 -44 -55 -44 -97 0 -76 42 -115 125 -115 59 0 75
8 75 37 0 18 -4 23 -17 19 -73 -21 -106 -15 -116 24 -5 19 -1 20 69 20 l74 0
0 36 c0 53 -44 94 -102 94 -26 0 -52 -7 -64 -18z m94 -34 c24 -24 13 -38 -28
-38 -26 0 -40 5 -40 13 0 18 21 37 40 37 9 0 21 -5 28 -12z"/>
<path d="M2040 835 l0 -115 30 0 30 0 0 115 0 115 -30 0 -30 0 0 -115z"/>
<path d="M2180 932 c-27 -22 -31 -83 -8 -109 14 -15 14 -20 2 -31 -11 -10 -12
-18 -3 -33 9 -17 7 -24 -10 -36 -25 -17 -28 -65 -6 -83 36 -30 151 -24 186 11
23 23 25 81 3 100 -8 7 -40 14 -70 17 -37 3 -54 9 -54 18 0 9 12 14 34 14 19
0 45 9 61 21 22 18 26 28 23 55 -3 25 0 34 14 37 10 3 18 12 18 21 0 25 -159
23 -190 -2z m88 -24 c18 -18 14 -56 -7 -68 -15 -7 -23 -6 -35 6 -20 20 -20 38
0 58 19 19 26 20 42 4z m26 -194 c9 -3 16 -12 16 -20 0 -32 -87 -47 -111 -18
-11 14 -10 18 6 30 20 15 62 18 89 8z"/>
<path d="M2427 925 c-48 -48 -45 -138 5 -180 23 -19 41 -25 78 -25 64 0 80 7
80 37 0 20 -4 23 -20 19 -11 -3 -29 -9 -40 -12 -25 -7 -70 20 -70 41 0 12 15
15 70 15 l70 0 0 39 c0 57 -38 91 -100 91 -37 0 -53 -5 -73 -25z m101 -27 c24
-24 13 -38 -28 -38 -26 0 -40 5 -40 13 0 18 21 37 40 37 9 0 21 -5 28 -12z"/>
<path d="M2660 835 l0 -115 30 0 30 0 0 73 c0 83 13 111 50 105 29 -4 38 -29
39 -115 l1 -63 31 0 31 0 -4 94 c-4 114 -17 136 -83 136 -26 0 -48 -6 -56 -16
-11 -14 -13 -14 -21 0 -5 9 -18 16 -28 16 -19 0 -20 -8 -20 -115z"/>
<path d="M2949 919 c-24 -25 -29 -40 -29 -80 0 -91 31 -122 116 -117 45 3 49
5 52 30 3 25 2 26 -39 21 -48 -7 -69 11 -69 60 0 51 17 69 62 66 30 -3 42 1
50 15 14 25 -5 36 -65 36 -42 0 -53 -5 -78 -31z"/>
<path d="M3150 835 l0 -115 30 0 30 0 0 115 0 115 -30 0 -30 0 0 -115z"/>
<path d="M3301 941 c-8 -5 -11 -16 -7 -29 6 -18 11 -20 34 -11 35 14 72 3 72
-20 0 -15 -10 -19 -52 -23 -78 -8 -111 -61 -72 -116 19 -27 88 -31 116 -6 16
16 18 16 24 0 3 -9 17 -16 30 -16 23 0 24 3 24 68 0 82 -15 138 -40 152 -23
12 -110 13 -129 1z m99 -136 c0 -26 -32 -50 -56 -41 -22 9 -17 46 9 56 36 15
47 11 47 -15z"/>
<path d="M3672 943 c-56 -22 -54 -195 3 -217 30 -11 73 -6 89 10 15 14 16 9
16 -50 l0 -66 30 0 30 0 0 165 0 165 -24 0 c-13 0 -26 -5 -28 -11 -3 -9 -9 -9
-25 0 -22 11 -68 14 -91 4z m96 -55 c13 -13 16 -75 6 -102 -9 -23 -61 -21 -74
3 -24 46 -5 111 33 111 13 0 28 -5 35 -12z"/>
<path d="M3902 856 c5 -115 18 -136 83 -136 26 0 48 6 56 16 11 14 13 14 21 0
5 -9 20 -16 33 -16 l25 0 0 115 0 115 -35 0 -35 0 0 -79 c0 -85 -10 -105 -52
-99 -22 3 -23 8 -26 91 l-3 87 -36 0 -35 0 4 -94z"/>
<path d="M4214 932 c-30 -24 -44 -55 -44 -97 0 -76 42 -115 125 -115 59 0 75
8 75 37 0 18 -4 23 -17 19 -73 -21 -106 -15 -116 24 -5 19 -1 20 69 20 l74 0
0 36 c0 53 -44 94 -102 94 -26 0 -52 -7 -64 -18z m94 -34 c24 -24 13 -38 -28
-38 -26 0 -40 5 -40 13 0 18 21 37 40 37 9 0 21 -5 28 -12z"/>
<path d="M4559 919 c-24 -26 -29 -39 -29 -84 0 -46 4 -58 31 -84 26 -26 38
-31 80 -31 28 0 59 5 70 10 22 12 27 55 5 47 -49 -19 -85 -18 -105 2 -34 34
-26 41 54 41 84 0 89 6 61 75 -17 41 -42 55 -96 55 -34 0 -48 -6 -71 -31z
m111 -28 c15 -30 14 -31 -35 -31 -48 0 -55 9 -29 34 21 22 51 20 64 -3z"/>
<path d="M4790 835 l0 -115 30 0 30 0 1 63 c1 90 9 111 43 115 39 5 46 -10 46
-100 l0 -78 30 0 30 0 0 95 c0 82 -3 98 -20 115 -23 23 -79 27 -113 9 -16 -9
-22 -9 -25 0 -2 6 -15 11 -28 11 -24 0 -24 0 -24 -115z"/>
<path d="M5269 919 c-24 -26 -29 -39 -29 -84 0 -46 4 -58 31 -84 26 -26 38
-31 80 -31 28 0 59 5 70 10 22 12 27 55 5 47 -49 -19 -85 -18 -105 2 -34 34
-26 41 54 41 84 0 89 6 61 75 -17 41 -42 55 -96 55 -34 0 -48 -6 -71 -31z
m111 -28 c15 -30 14 -31 -35 -31 -48 0 -55 9 -29 34 21 22 51 20 64 -3z"/>
<path d="M5500 835 l0 -115 30 0 30 0 0 71 c0 81 11 109 43 109 38 0 47 -19
47 -102 l0 -78 30 0 30 0 0 86 c0 81 -10 120 -34 136 -19 13 -81 9 -104 -8
-20 -14 -22 -14 -22 0 0 10 -9 16 -25 16 l-25 0 0 -115z"/>
<path d="M6059 919 c-24 -26 -29 -39 -29 -84 0 -46 4 -58 31 -84 26 -26 38
-31 80 -31 28 0 59 5 70 10 22 12 27 55 5 47 -49 -19 -85 -18 -105 2 -34 34
-26 41 54 41 84 0 89 6 61 75 -17 41 -42 55 -96 55 -34 0 -48 -6 -71 -31z
m111 -28 c15 -30 14 -31 -35 -31 -48 0 -55 9 -29 34 21 22 51 20 64 -3z"/>
<path d="M6710 835 l0 -115 30 0 30 0 0 115 0 115 -30 0 -30 0 0 -115z"/>
<path d="M6840 835 l0 -115 30 0 30 0 0 64 c0 71 18 103 60 109 18 3 26 11 28
30 3 24 0 27 -26 27 -16 0 -35 -7 -42 -15 -7 -8 -16 -15 -21 -15 -5 0 -9 7 -9
15 0 9 -9 15 -25 15 l-25 0 0 -115z"/>
<path d="M7049 919 c-24 -26 -29 -39 -29 -84 0 -46 4 -58 31 -84 26 -26 38
-31 80 -31 28 0 59 5 70 10 22 12 27 55 5 47 -49 -19 -85 -18 -105 2 -34 34
-26 41 54 41 84 0 89 6 61 75 -17 41 -42 55 -96 55 -34 0 -48 -6 -71 -31z
m111 -28 c15 -30 14 -31 -35 -31 -48 0 -55 9 -29 34 21 22 51 20 64 -3z"/>
<path d="M7280 835 l0 -115 30 0 30 0 0 115 0 115 -30 0 -30 0 0 -115z"/>
<path d="M7608 918 c-28 -30 -30 -37 -26 -92 4 -49 9 -63 32 -83 40 -34 114
-33 149 3 35 35 45 100 22 147 -19 40 -50 57 -106 57 -33 0 -47 -6 -71 -32z
m112 -33 c6 -8 12 -30 12 -50 0 -43 -16 -65 -48 -65 -26 0 -44 26 -44 65 0 14
5 35 10 46 13 23 52 25 70 4z"/>
</g>
</svg>
